# Blender 4.1.1
# www.blender.org
mtllib PatouneLowPoly.mtl
o Patoune
v -0.006411 -0.001830 0.001000
v -0.006911 0.000229 0.001000
v -0.006941 0.000649 0.001000
v -0.006729 0.002837 0.001000
v -0.004356 0.007048 0.001000
v -0.004099 0.007293 0.001000
v -0.003189 0.007915 0.001000
v -0.002152 0.008291 0.001000
v -0.001824 0.008330 0.001000
v -0.001522 0.008315 0.001000
v -0.001252 0.008245 0.001000
v 0.000033 0.007242 0.001000
v 0.000295 0.007141 0.001000
v 0.000579 0.007089 0.001000
v 0.002516 0.007237 0.001000
v 0.002757 0.007144 0.001000
v 0.002997 0.006987 0.001000
v 0.007152 0.001667 0.001000
v 0.007205 0.000859 0.001000
v 0.004633 -0.007105 0.001000
v 0.004299 -0.007619 0.001000
v 0.003769 -0.007972 0.001000
v -0.001855 -0.008215 0.001000
v -0.002163 -0.008127 0.001000
v -0.003270 -0.007379 0.001000
v -0.003519 -0.007101 0.001000
v -0.002555 -0.006680 0.000000
v -0.001821 -0.007187 0.000000
v 0.003397 -0.007045 0.000000
v 0.003581 -0.006926 0.000000
v 0.006210 0.000965 -0.000000
v 0.006200 0.001365 -0.000000
v 0.002296 0.006256 -0.000000
v 0.000253 0.006128 -0.000000
v -0.001669 0.007326 -0.000000
v -0.001966 0.007309 -0.000000
v -0.003639 0.006351 -0.000000
v -0.005760 0.002588 -0.000000
v -0.005916 0.000328 -0.000000
v -0.005943 0.000697 0.002000
v -0.005760 0.002588 0.002000
v -0.003438 0.006543 0.002000
v -0.001785 0.007331 0.002000
v -0.001608 0.007311 0.002000
v 0.000026 0.006179 0.002000
v 0.002295 0.006257 0.002000
v 0.002386 0.006195 0.002000
v 0.006199 0.001364 0.002000
v 0.003579 -0.006926 0.002000
v 0.003398 -0.007046 0.002000
v -0.001822 -0.007187 0.002000
v -0.002751 -0.006461 0.002000
vn 0.3058 0.6338 0.7105
vn 0.3621 0.6048 0.7093
vn 0.4023 0.5755 0.7120
vn 0.4098 0.6520 0.6379
vn 0.2993 0.6311 0.7157
vn -0.6353 0.3326 -0.6970
vn -0.6146 0.3645 -0.6996
vn -0.6135 0.3721 -0.6966
vn -0.6357 0.3326 -0.6966
vn 0.3643 0.6628 0.6542
vn 0.3755 0.6522 0.6585
vn 0.3607 0.6439 0.6748
vn 0.4397 0.5885 0.6785
vn 0.3963 0.6185 0.6785
vn -0.0000 -0.0000 1.0000
vn 0.5117 0.4869 -0.7079
vn 0.5663 0.4376 -0.6984
vn 0.5871 0.4006 -0.7035
vn 0.5756 0.4224 -0.7001
vn 0.5172 0.4851 -0.7051
vn 0.6536 -0.2156 0.7255
vn 0.6604 -0.2176 0.7187
vn 0.6347 -0.1546 0.7572
vn 0.6523 -0.1341 0.7460
vn 0.6165 -0.2610 0.7428
vn 0.6264 -0.2704 0.7310
vn -0.6957 0.0663 -0.7152
vn -0.7007 0.0392 -0.7124
vn -0.6990 0.0268 -0.7146
vn -0.7145 0.0398 -0.6985
vn -0.6956 0.0730 -0.7147
vn 0.4573 -0.5348 0.7105
vn 0.3378 -0.6271 0.7019
vn 0.3133 -0.6286 0.7118
vn 0.4499 -0.5514 0.7025
vn -0.0562 0.7185 -0.6932
vn -0.0018 0.7215 -0.6924
vn -0.1053 0.7276 -0.6778
vn -0.0715 0.7723 -0.6312
vn 0.0378 0.7053 -0.7079
vn 0.4350 -0.5639 -0.7019
vn 0.4551 -0.5490 -0.7010
vn 0.3866 -0.6005 -0.7000
vn 0.3347 -0.6225 -0.7074
vn -0.0000 -0.0000 -1.0000
vn -0.7075 0.0529 0.7047
vn -0.7073 0.0477 0.7053
vn -0.7048 0.0910 0.7036
vn -0.7009 0.1077 0.7051
vn -0.5672 -0.2700 0.7781
vn -0.5822 -0.2390 0.7771
vn -0.5785 -0.2378 0.7802
vn -0.5983 -0.2505 0.7611
vn -0.5906 -0.2530 0.7663
vn -0.5664 -0.2802 0.7750
vn -0.4365 -0.5613 -0.7032
vn -0.3996 -0.5928 -0.6992
vn -0.3743 -0.6096 -0.6987
vn -0.4091 -0.5855 -0.6999
vn -0.6164 0.3383 0.7110
vn -0.6147 0.3328 0.7151
vn -0.5931 0.3764 0.7117
vn -0.5925 0.3796 0.7106
vn -0.6169 0.3772 0.6907
vn -0.0627 0.7011 -0.7103
vn -0.0786 0.7006 -0.7092
vn -0.0672 0.7418 -0.6673
vn 0.0029 0.6941 -0.7199
vn 0.0215 0.7025 -0.7114
vn 0.7128 0.0558 -0.6991
vn 0.7141 0.0149 -0.6999
vn 0.7060 -0.0252 -0.7078
vn 0.7008 0.1135 -0.7043
vn 0.7129 -0.2107 -0.6688
vn 0.6315 -0.2789 -0.7235
vn 0.6561 -0.2356 -0.7169
vn 0.6756 -0.2030 -0.7088
vn 0.6666 -0.2158 -0.7135
vn 0.4344 0.5926 -0.6783
vn 0.4385 0.6000 -0.6691
vn 0.4338 0.6099 -0.6632
vn 0.3638 0.6623 -0.6549
vn 0.4538 0.5826 -0.6742
vn 0.3317 0.6635 -0.6707
vn 0.3142 0.6527 -0.6894
vn -0.2719 0.6628 0.6977
vn -0.2760 0.6548 0.7036
vn -0.3093 0.6061 0.7328
vn -0.3260 0.5966 0.7333
vn -0.2374 0.6279 0.7412
vn -0.2355 0.6440 0.7279
vn 0.0820 -0.7015 0.7080
vn 0.0321 -0.7098 0.7037
vn -0.0217 -0.7161 0.6976
vn -0.0261 -0.7217 0.6918
vn -0.0166 -0.7401 0.6723
vn -0.0100 -0.7057 -0.7085
vn 0.0415 -0.7120 -0.7010
vn 0.0681 -0.7081 -0.7028
vn 0.0417 -0.7448 -0.6660
vn 0.0119 -0.7102 -0.7039
vn 0.5488 0.4683 0.6924
vn 0.5314 0.4849 0.6946
vn 0.5884 0.4033 0.7009
vn 0.5658 0.4523 0.6894
vn -0.3107 0.6041 -0.7339
vn -0.3480 0.5879 -0.7302
vn -0.3561 0.5780 -0.7343
vn -0.3589 0.6025 -0.7128
vn -0.3693 0.6059 -0.7046
vn -0.3116 0.5954 -0.7405
vn -0.5740 -0.2764 -0.7707
vn -0.5605 -0.2986 -0.7724
vn -0.5810 -0.2824 -0.7633
vn -0.5847 -0.2904 -0.7575
vn -0.5776 -0.2739 -0.7690
vn -0.5802 -0.2651 -0.7701
vn -0.4002 -0.5739 0.7145
vn -0.4525 -0.5351 0.7134
vn -0.4472 -0.5369 0.7154
vn -0.4699 -0.5605 0.6820
vn -0.4022 -0.5669 0.7189
vn 0.1669 0.6895 0.7048
vn 0.1786 0.6700 0.7205
vn 0.1509 0.7346 0.6615
vn 0.0446 0.6960 0.7166
vn 0.0162 0.6964 0.7174
vn -0.0844 0.7419 0.6652
vn -0.0024 0.7522 0.6590
vn -0.1839 0.7182 0.6711
vn 0.0567 0.7201 0.6916
vn 0.0622 0.7371 0.6730
vt 0.635846 0.849841
vt 0.641010 0.846323
vt 0.675682 0.891266
vt 0.662063 0.900176
vt 0.648387 0.905453
vt 0.123765 0.655768
vt 0.258425 0.894728
vt 0.299112 0.855176
vt 0.178753 0.641638
vt 0.522353 0.900005
vt 0.507485 0.905737
vt 0.434566 0.962654
vt 0.414364 0.909652
vt 0.507088 0.845415
vt 0.168368 0.534331
vt 0.349503 0.128139
vt 0.402221 0.086941
vt 0.698438 0.094942
vt 0.708709 0.101752
vt 0.857385 0.572181
vt 0.404320 0.910787
vt 0.310518 0.866071
vt 0.911464 0.589375
vt 0.857441 0.572237
vt 0.635903 0.849785
vt 0.768520 0.091594
vt 0.914472 0.543524
vt 0.749566 0.062426
vt 0.169900 0.513391
vt 0.113437 0.507773
vt 0.111735 0.531607
vt 0.719490 0.042395
vt 0.519970 0.842521
vt 0.538469 0.897055
vt 0.708822 0.101752
vt 0.698381 0.094999
vt 0.858009 0.549539
vt 0.402277 0.086941
vt 0.360625 0.115711
vt 0.394049 0.909539
vt 0.410903 0.910503
vt 0.141811 0.390932
vt 0.305922 0.091821
vt 0.382870 0.033599
vt 0.320052 0.076045
vt 0.273009 0.908631
vt 0.383494 0.965264
vt 0.402107 0.967477
vt 0.419245 0.966626
vt 0.324648 0.943927
vt 0.400348 0.028605
s 0
usemtl Steel_-_Satin
f 46/1/1 47/2/2 17/3/3 16/4/4 15/5/5
f 4/6/6 5/7/7 37/8/8 38/9/9
f 13/10/10 12/11/11 11/12/12 44/13/13 45/14/14
f 41/9/15 40/15/15 52/16/15 51/17/15 50/18/15 49/19/15 48/20/15 47/2/15 46/1/15 45/14/15 44/13/15 43/21/15 42/22/15
f 16/4/16 17/3/17 18/23/18 32/24/19 33/25/20
f 20/26/21 19/27/22 18/23/23 48/20/24 49/19/25 21/28/26
f 38/9/27 39/29/28 2/30/29 3/31/30 4/6/31
f 49/19/32 50/18/33 22/32/34 21/28/35
f 33/25/36 34/33/37 14/34/38 15/5/39 16/4/40
f 30/35/41 21/28/42 22/32/43 29/36/44
f 32/24/45 31/37/45 30/35/45 29/36/45 28/38/45 27/39/45 39/29/45 38/9/45 37/8/45 36/40/45 35/41/45 34/33/45 33/25/45
f 3/31/46 40/15/47 41/9/48 4/6/49
f 52/16/50 40/15/51 3/31/52 2/30/53 1/42/54 26/43/55
f 27/39/56 28/38/57 24/44/58 25/45/59
f 4/6/60 41/9/61 42/22/62 6/46/63 5/7/64
f 36/40/65 8/47/66 9/48/67 10/49/68 35/41/69
f 18/23/70 19/27/71 31/37/72 32/24/73
f 20/26/74 21/28/75 30/35/76 31/37/77 19/27/78
f 11/12/79 12/11/80 13/10/81 14/34/82 34/33/83 35/41/84 10/49/85
f 8/47/86 7/50/87 6/46/88 42/22/89 43/21/90 9/48/91
f 22/32/92 50/18/93 51/17/94 24/44/95 23/51/96
f 28/38/97 29/36/98 22/32/99 23/51/100 24/44/101
f 17/3/102 47/2/103 48/20/104 18/23/105
f 36/40/106 37/8/107 5/7/108 6/46/109 7/50/110 8/47/111
f 27/39/112 25/45/113 26/43/114 1/42/115 2/30/116 39/29/117
f 51/17/118 52/16/119 26/43/120 25/45/121 24/44/122
f 44/13/123 11/12/124 10/49/125 9/48/126 43/21/127
f 14/34/128 13/10/129 45/14/130 46/1/131 15/5/132
