# Blender v3.3.1 OBJ File: ''
# www.blender.org
mtllib DFlag Round Square C3.mtl
o DFlag_Round_Square_C3
v 0.020243 0.006227 -0.000500
v -0.019757 0.006227 -0.000500
v -0.019757 0.006227 0.000500
v 0.020243 0.006227 0.000500
v 0.019277 -0.006331 -0.000500
v 0.019277 -0.006331 0.000500
v 0.017743 -0.006273 -0.000500
v 0.018254 -0.006279 -0.000500
v 0.018766 -0.006299 -0.000500
v 0.018766 -0.006299 0.000500
v 0.018254 -0.006279 0.000500
v 0.017743 -0.006273 0.000500
v -0.017257 -0.006273 -0.000500
v -0.017257 -0.006273 0.000500
v -0.019757 -0.006429 -0.000500
v -0.018926 -0.006342 -0.000500
v -0.018093 -0.006290 -0.000500
v -0.018093 -0.006290 0.000500
v -0.018926 -0.006342 0.000500
v -0.019757 -0.006429 0.000500
vt -0.000000 0.000000
vt 4.000000 0.000000
vt -0.000000 0.100000
vt 4.000000 0.100000
vt 0.000000 0.000000
vt 1.259601 0.000000
vt 0.000000 0.100000
vt 1.259601 0.100000
vt 0.100000 3.141593
vt 0.000000 3.141593
vt 0.100000 3.090411
vt 0.000000 3.090411
vt 0.100000 3.039230
vt 0.000000 3.039230
vt 0.100000 2.988049
vt 0.000000 2.988049
vt 0.000000 0.000000
vt 3.500000 0.000000
vt 0.000000 0.100000
vt 3.500000 0.100000
vt 0.100000 0.250656
vt 0.000000 0.250656
vt 0.100000 0.167104
vt -0.000000 0.167104
vt 0.000000 0.083552
vt 0.100000 0.000000
vt 0.100000 0.083552
vt -0.000000 0.000000
vt 1.265687 0.000000
vt -0.000000 0.100000
vt 1.265687 0.100000
vt -2.000000 3.109313
vt -1.916909 3.118023
vt -2.000000 4.375000
vt -1.833528 3.123255
vt -1.750000 3.125000
vt 1.750000 3.125000
vt 2.000000 4.375000
vt 1.801176 3.124345
vt 1.852318 3.122381
vt 1.903393 3.119109
vt 2.000000 3.109313
vt 2.000000 4.375000
vt 1.916909 3.118023
vt 1.833528 3.123255
vt 1.750000 3.125000
vt -2.000000 4.375000
vt -1.750000 3.125000
vt -1.801176 3.124345
vt -1.852318 3.122381
vt -1.903393 3.119109
vn 0.0000 1.0000 0.0000
vn 0.9971 -0.0767 0.0000
vn 0.0000 -1.0000 0.0000
vn -0.0256 -0.9997 0.0000
vn -0.0511 -0.9987 0.0000
vn -0.0512 -0.9987 0.0000
vn -0.0767 -0.9971 0.0000
vn 0.1250 -0.9922 0.0000
vn 0.0835 -0.9965 0.0000
vn 0.0834 -0.9965 0.0000
vn 0.0418 -0.9991 0.0000
vn 0.0417 -0.9991 0.0000
vn -1.0000 0.0000 0.0000
vn 0.0000 -0.0000 1.0000
vn 0.0000 0.0000 -1.0000
usemtl Steel_-_Satin.006
s off
f 1/1/1 2/2/1 4/3/1
f 4/3/1 2/2/1 3/4/1
f 5/5/2 1/6/2 6/7/2
f 6/7/2 1/6/2 4/8/2
f 12/9/3 7/10/3 11/11/4
f 11/11/4 7/10/3 8/12/4
f 11/11/4 8/12/4 10/13/5
f 10/13/5 8/12/4 9/14/5
f 10/13/6 9/14/6 6/15/7
f 6/15/7 9/14/6 5/16/7
f 13/17/3 7/18/3 14/19/3
f 14/19/3 7/18/3 12/20/3
f 20/21/8 15/22/8 19/23/9
f 19/23/9 15/22/8 16/24/9
f 19/23/10 16/24/10 17/25/11
f 13/17/3 14/26/3 17/25/12
f 17/25/12 14/26/3 18/27/12
f 17/25/11 18/27/11 19/23/9
f 2/28/13 15/29/13 3/30/13
f 3/30/13 15/29/13 20/31/13
f 20/32/14 19/33/14 3/34/14
f 3/34/14 19/33/14 18/35/14
f 3/34/14 18/35/14 14/36/14
f 14/36/14 12/37/14 3/34/14
f 3/34/14 12/37/14 4/38/14
f 4/38/14 12/37/14 11/39/14
f 4/38/14 11/39/14 10/40/14
f 10/40/14 6/41/14 4/38/14
f 15/42/15 2/43/15 16/44/15
f 16/44/15 2/43/15 17/45/15
f 17/45/15 2/43/15 13/46/15
f 13/46/15 2/43/15 1/47/15
f 13/46/15 1/47/15 7/48/15
f 7/48/15 1/47/15 8/49/15
f 8/49/15 1/47/15 9/50/15
f 9/50/15 1/47/15 5/51/15
