# Blender v3.3.1 OBJ File: ''
# www.blender.org
mtllib DFlag Square C1.mtl
o DFlag_Square_C1
v 0.006548 -0.037500 -0.000500
v 0.006548 0.037500 -0.000500
v 0.006548 0.037500 0.000500
v 0.006548 -0.037500 0.000500
v -0.005952 -0.050000 -0.000500
v -0.005952 -0.050000 0.000500
v -0.005952 0.050000 -0.000500
v -0.005952 0.050000 0.000500
vt 0.000000 0.000000
vt 7.500000 0.000000
vt 0.000000 0.100000
vt 7.500000 0.100000
vt 0.000000 0.000000
vt 1.767767 0.000000
vt 0.000000 0.100000
vt 1.767767 0.100000
vt 0.000000 0.000000
vt 10.000000 0.000000
vt 0.000000 0.100000
vt 10.000000 0.100000
vt 0.000000 0.000000
vt 1.767767 0.000000
vt 0.000000 0.100000
vt 1.767767 0.100000
vt -0.625000 5.000000
vt -0.625000 -5.000000
vt 0.625000 3.750000
vt 0.625000 -3.750000
vt 0.625000 5.000000
vt -0.625000 3.750000
vt 0.625000 -5.000000
vt -0.625000 -3.750000
vn 1.0000 0.0000 0.0000
vn 0.7071 -0.7071 0.0000
vn -1.0000 0.0000 0.0000
vn 0.7071 0.7071 0.0000
vn -0.0000 -0.0000 1.0000
vn 0.0000 0.0000 -1.0000
usemtl Steel_-_Satin.005
s off
f 1/1/1 2/2/1 4/3/1
f 4/3/1 2/2/1 3/4/1
f 5/5/2 1/6/2 6/7/2
f 6/7/2 1/6/2 4/8/2
f 7/9/3 5/10/3 8/11/3
f 8/11/3 5/10/3 6/12/3
f 2/13/4 7/14/4 3/15/4
f 3/15/4 7/14/4 8/16/4
f 8/17/5 6/18/5 3/19/5
f 3/19/5 6/18/5 4/20/5
f 7/21/6 2/22/6 5/23/6
f 5/23/6 2/22/6 1/24/6
