# Blender v3.3.1 OBJ File: ''
# www.blender.org
mtllib DFlag Circle C1.mtl
o DFlag_Circle_C1
v -0.008537 -0.005418 -0.000500
v -0.006901 -0.005454 -0.000500
v -0.005269 -0.005561 -0.000500
v -0.003642 -0.005739 -0.000500
v -0.002025 -0.005988 -0.000500
v -0.000421 -0.006307 -0.000500
v 0.001169 -0.006696 -0.000500
v 0.002739 -0.007154 -0.000500
v 0.004289 -0.007680 -0.000500
v 0.005814 -0.008273 -0.000500
v 0.005814 -0.008273 0.000500
v 0.004289 -0.007680 0.000500
v 0.002739 -0.007154 0.000500
v 0.001169 -0.006696 0.000500
v -0.000421 -0.006307 0.000500
v -0.002025 -0.005988 0.000500
v -0.003642 -0.005739 0.000500
v -0.005269 -0.005561 0.000500
v -0.006901 -0.005454 0.000500
v -0.008537 -0.005418 0.000500
v -0.008537 0.007082 -0.000500
v -0.008537 0.007082 0.000500
v 0.010597 0.003276 -0.000500
v 0.008769 0.003992 -0.000500
v 0.006914 0.004635 -0.000500
v 0.005035 0.005205 -0.000500
v 0.003135 0.005700 -0.000500
v 0.001218 0.006121 -0.000500
v -0.000715 0.006466 -0.000500
v -0.002660 0.006735 -0.000500
v -0.004614 0.006928 -0.000500
v -0.006574 0.007043 -0.000500
v -0.006574 0.007043 0.000500
v -0.004614 0.006928 0.000500
v -0.002660 0.006735 0.000500
v -0.000715 0.006466 0.000500
v 0.001218 0.006121 0.000500
v 0.003135 0.005700 0.000500
v 0.005035 0.005205 0.000500
v 0.006914 0.004635 0.000500
v 0.008769 0.003992 0.000500
v 0.010597 0.003276 0.000500
vt 0.100000 5.890486
vt 0.000000 5.890486
vt 0.100000 5.726862
vt -0.000000 5.726862
vt 0.100000 5.563237
vt -0.000000 5.563237
vt 0.100000 5.399612
vt 0.000000 5.399612
vt 0.100000 5.235988
vt -0.000000 5.235988
vt 0.100000 5.072363
vt 0.000000 5.072363
vt 0.100000 4.908739
vt -0.000000 4.908739
vt 0.100000 4.745114
vt 0.000000 4.745114
vt 0.100000 4.581489
vt 0.000000 4.581489
vt 0.100000 4.417865
vt -0.000000 4.417865
vt -0.000000 0.000000
vt 1.250000 0.000000
vt -0.000000 0.100000
vt 1.250000 0.100000
vt -0.100000 5.890486
vt -0.000000 5.890486
vt -0.100000 6.086836
vt -0.000000 6.086836
vt -0.100000 6.283185
vt -0.000000 6.283185
vt -0.100000 6.479535
vt -0.000000 6.479535
vt -0.100000 6.675884
vt -0.000000 6.675884
vt -0.100000 6.872234
vt -0.000000 6.872234
vt -0.100000 7.068583
vt -0.000000 7.068583
vt -0.100000 7.264933
vt -0.000000 7.264933
vt -0.100000 7.461283
vt -0.000000 7.461283
vt -0.100000 7.657632
vt -0.000000 7.657632
vt -0.100000 7.853982
vt -0.000000 7.853982
vt -0.000000 0.000000
vt 1.250000 0.000000
vt -0.000000 0.100000
vt 1.250000 0.100000
vt 0.478354 -0.767726
vt 0.956709 0.387124
vt 0.325867 -0.708427
vt 0.170938 -0.655836
vt 0.773877 0.458683
vt 0.588376 0.523008
vt 0.013863 -0.610052
vt 0.400494 0.580002
vt -0.145060 -0.571164
vt 0.210518 0.629575
vt -0.305528 -0.539245
vt 0.018743 0.671652
vt -0.467235 -0.514356
vt -0.174536 0.706168
vt -0.369022 0.733068
vt -0.629875 -0.496544
vt -0.564413 0.752313
vt -0.793136 -0.485843
vt -0.760410 0.763871
vt -0.956709 -0.482274
vt -0.956709 0.767726
vt -0.478354 -0.767726
vt -0.325867 -0.708427
vt -0.956709 0.387124
vt -0.170938 -0.655836
vt -0.773877 0.458683
vt -0.588376 0.523008
vt -0.013863 -0.610052
vt -0.400494 0.580002
vt 0.145060 -0.571164
vt -0.210518 0.629575
vt 0.305528 -0.539245
vt -0.018743 0.671652
vt 0.467235 -0.514356
vt 0.174536 0.706168
vt 0.369022 0.733068
vt 0.629875 -0.496544
vt 0.564413 0.752313
vt 0.793136 -0.485843
vt 0.760410 0.763871
vt 0.956709 -0.482274
vt 0.956709 0.767726
vn 0.0000 -1.0000 0.0000
vn -0.0436 -0.9990 0.0000
vn -0.0872 -0.9962 0.0000
vn -0.0871 -0.9962 0.0000
vn -0.1306 -0.9914 0.0000
vn -0.1305 -0.9914 -0.0000
vn -0.1737 -0.9848 0.0000
vn -0.2164 -0.9763 0.0000
vn -0.2588 -0.9659 0.0000
vn -0.3007 -0.9537 0.0000
vn -0.3420 -0.9397 0.0000
vn -0.3827 -0.9239 0.0000
vn -1.0000 -0.0000 0.0000
vn 0.3827 0.9239 -0.0000
vn 0.3461 0.9382 -0.0000
vn 0.3090 0.9511 0.0000
vn 0.2714 0.9625 0.0000
vn 0.3090 0.9510 -0.0000
vn 0.2715 0.9625 -0.0000
vn 0.2335 0.9724 0.0000
vn 0.1951 0.9808 -0.0000
vn 0.1564 0.9877 0.0000
vn 0.1176 0.9931 0.0000
vn 0.1175 0.9931 -0.0000
vn 0.0785 0.9969 0.0000
vn 0.0393 0.9992 0.0000
vn 0.0000 1.0000 0.0000
vn 0.9239 -0.3826 0.0000
vn 0.0000 -0.0000 1.0000
vn 0.0000 0.0000 -1.0000
usemtl Steel_-_Satin.009
s off
f 20/1/1 1/2/1 19/3/2
f 19/3/2 1/2/1 2/4/2
f 19/3/2 2/4/2 18/5/3
f 18/5/3 2/4/2 3/6/3
f 18/5/4 3/6/4 17/7/5
f 17/7/5 3/6/4 4/8/5
f 17/7/6 4/8/6 16/9/7
f 16/9/7 4/8/6 5/10/7
f 16/9/7 5/10/7 15/11/8
f 15/11/8 5/10/7 6/12/8
f 15/11/8 6/12/8 14/13/9
f 14/13/9 6/12/8 7/14/9
f 14/13/9 7/14/9 13/15/10
f 13/15/10 7/14/9 8/16/10
f 13/15/10 8/16/10 12/17/11
f 12/17/11 8/16/10 9/18/11
f 12/17/11 9/18/11 11/19/12
f 11/19/12 9/18/11 10/20/12
f 21/21/13 1/22/13 22/23/13
f 22/23/13 1/22/13 20/24/13
f 42/25/14 23/26/14 41/27/15
f 41/27/15 23/26/14 24/28/15
f 41/27/15 24/28/15 40/29/16
f 40/29/16 24/28/15 25/30/16
f 40/29/16 25/30/16 39/31/17
f 39/31/17 25/30/18 26/32/17
f 39/31/19 26/32/19 38/33/20
f 38/33/20 26/32/19 27/34/20
f 38/33/20 27/34/20 37/35/21
f 37/35/21 27/34/20 28/36/21
f 37/35/21 28/36/21 36/37/22
f 36/37/22 28/36/21 29/38/22
f 36/37/22 29/38/22 35/39/23
f 35/39/23 29/38/22 30/40/23
f 35/39/24 30/40/24 34/41/25
f 34/41/25 30/40/24 31/42/25
f 34/41/25 31/42/25 33/43/26
f 33/43/26 31/42/25 32/44/26
f 33/43/26 32/44/26 22/45/27
f 22/45/27 32/44/26 21/46/27
f 10/47/28 23/48/28 11/49/28
f 11/49/28 23/48/28 42/50/28
f 11/51/29 42/52/29 12/53/29
f 12/53/29 42/52/29 13/54/29
f 13/54/29 42/52/29 41/55/29
f 13/54/29 41/55/29 40/56/29
f 13/54/29 40/56/29 14/57/29
f 14/57/29 40/56/29 39/58/29
f 14/57/29 39/58/29 15/59/29
f 15/59/29 39/58/29 38/60/29
f 15/59/29 38/60/29 16/61/29
f 16/61/29 38/60/29 37/62/29
f 16/61/29 37/62/29 17/63/29
f 17/63/29 37/62/29 36/64/29
f 17/63/29 36/64/29 35/65/29
f 17/63/29 35/65/29 18/66/29
f 18/66/29 35/65/29 34/67/29
f 18/66/29 34/67/29 19/68/29
f 19/68/29 34/67/29 33/69/29
f 19/68/29 33/69/29 20/70/29
f 20/70/29 33/69/29 22/71/29
f 10/72/30 9/73/30 23/74/30
f 23/74/30 9/73/30 8/75/30
f 23/74/30 8/75/30 24/76/30
f 24/76/30 8/75/30 25/77/30
f 25/77/30 8/75/30 7/78/30
f 25/77/30 7/78/30 26/79/30
f 26/79/30 7/78/30 6/80/30
f 26/79/30 6/80/30 27/81/30
f 27/81/30 6/80/30 5/82/30
f 27/81/30 5/82/30 28/83/30
f 28/83/30 5/82/30 4/84/30
f 28/83/30 4/84/30 29/85/30
f 29/85/30 4/84/30 30/86/30
f 30/86/30 4/84/30 3/87/30
f 30/86/30 3/87/30 31/88/30
f 31/88/30 3/87/30 2/89/30
f 31/88/30 2/89/30 32/90/30
f 32/90/30 2/89/30 1/91/30
f 32/90/30 1/91/30 21/92/30
