# Blender v3.3.1 OBJ File: ''
# www.blender.org
mtllib DFlag Pentagone C1.mtl
o DFlag_Pentagone_C1
v -0.020109 0.022222 -0.000500
v -0.020261 0.006772 -0.000500
v -0.020261 0.006772 0.000500
v -0.020109 0.022222 0.000500
v 0.027101 -0.012793 -0.000500
v 0.027101 -0.012793 0.000500
v 0.012360 -0.017423 -0.000500
v 0.012360 -0.017423 0.000500
vt -0.000000 0.000000
vt 1.545085 0.000000
vt -0.000000 0.100000
vt 1.545085 0.100000
vt 0.000000 0.000000
vt 5.877853 0.000000
vt 0.000000 0.100000
vt 5.877853 0.100000
vt 0.000000 0.000000
vt 1.545085 0.000000
vt 0.000000 0.100000
vt 1.545085 0.100000
vt 0.000000 0.000000
vt 4.061496 0.000000
vt 0.000000 0.100000
vt 4.061496 0.100000
vt 0.894044 -1.982253
vt 2.368133 -1.519274
vt -2.368133 0.437242
vt -2.352933 1.982253
vt -0.894044 -1.982253
vt 2.368133 0.437242
vt -2.368133 -1.519274
vt 2.352933 1.982253
vn -1.0000 0.0098 0.0000
vn 0.5957 0.8032 0.0000
vn 0.2997 -0.9540 0.0000
vn -0.5957 -0.8032 0.0000
vn 0.0000 -0.0000 1.0000
vn -0.0000 0.0000 -1.0000
usemtl Steel_-_Satin.001
s off
f 1/1/1 2/2/1 4/3/1
f 4/3/1 2/2/1 3/4/1
f 5/5/2 1/6/2 6/7/2
f 6/7/2 1/6/2 4/8/2
f 7/9/3 5/10/3 8/11/3
f 8/11/3 5/10/3 6/12/3
f 2/13/4 7/14/4 3/15/4
f 3/15/4 7/14/4 8/16/4
f 8/17/5 6/18/5 3/19/5
f 3/19/5 6/18/5 4/20/5
f 7/21/6 2/22/6 5/23/6
f 5/23/6 2/22/6 1/24/6
