# Blender v3.3.1 OBJ File: ''
# www.blender.org
mtllib DFlag Round Square C2.mtl
o DFlag_Round_Square_C2
v -0.002645 -0.009944 -0.000500
v -0.001682 -0.009042 -0.000500
v -0.000661 -0.008206 -0.000500
v 0.000413 -0.007439 -0.000500
v 0.001535 -0.006744 -0.000500
v 0.002701 -0.006125 -0.000500
v 0.003905 -0.005584 -0.000500
v 0.005142 -0.005123 -0.000500
v 0.006406 -0.004745 -0.000500
v 0.007693 -0.004452 -0.000500
v 0.008997 -0.004243 -0.000500
v 0.008997 -0.004243 0.000500
v 0.007693 -0.004452 0.000500
v 0.006406 -0.004745 0.000500
v 0.005142 -0.005123 0.000500
v 0.003905 -0.005584 0.000500
v 0.002701 -0.006125 0.000500
v 0.001535 -0.006744 0.000500
v 0.000413 -0.007439 0.000500
v -0.000661 -0.008206 0.000500
v -0.001682 -0.009042 0.000500
v -0.002645 -0.009944 0.000500
v -0.012216 -0.000373 -0.000500
v -0.012216 -0.000373 0.000500
v 0.008997 0.008413 -0.000500
v 0.007427 0.008372 -0.000500
v 0.005861 0.008249 -0.000500
v 0.004304 0.008044 -0.000500
v 0.002759 0.007758 -0.000500
v 0.001232 0.007391 -0.000500
v -0.000274 0.006945 -0.000500
v -0.001754 0.006421 -0.000500
v -0.003205 0.005820 -0.000500
v -0.004623 0.005144 -0.000500
v -0.006003 0.004394 -0.000500
v -0.007342 0.003574 -0.000500
v -0.008637 0.002684 -0.000500
v -0.009883 0.001728 -0.000500
v -0.011077 0.000708 -0.000500
v -0.011077 0.000708 0.000500
v -0.009883 0.001728 0.000500
v -0.008637 0.002684 0.000500
v -0.007342 0.003574 0.000500
v -0.006003 0.004394 0.000500
v -0.004623 0.005144 0.000500
v -0.003205 0.005820 0.000500
v -0.001754 0.006421 0.000500
v -0.000274 0.006945 0.000500
v 0.001232 0.007391 0.000500
v 0.002759 0.007758 0.000500
v 0.004304 0.008044 0.000500
v 0.005861 0.008249 0.000500
v 0.007427 0.008372 0.000500
v 0.008997 0.008413 0.000500
vt 0.100000 1.570796
vt -0.000000 1.570796
vt 0.100000 1.438782
vt -0.000000 1.438782
vt 0.100000 1.306768
vt -0.000000 1.306768
vt 0.100000 1.174754
vt -0.000000 1.174754
vt 0.100000 1.042740
vt 0.000000 1.042740
vt 0.100000 0.910726
vt -0.000000 0.910726
vt 0.100000 0.778712
vt 0.000000 0.778712
vt 0.100000 0.646698
vt -0.000000 0.646698
vt 0.100000 0.514684
vt 0.000000 0.514684
vt 0.100000 0.382670
vt -0.000000 0.382670
vt 0.100000 0.250656
vt 0.000000 0.250656
vt 0.000000 0.000000
vt 1.353553 0.000000
vt 0.000000 0.100000
vt 1.353553 0.100000
vt -0.100000 0.000000
vt -0.000000 0.000000
vt -0.100000 0.157080
vt -0.000000 0.157080
vt -0.100000 0.314159
vt -0.000000 0.314159
vt -0.100000 0.471239
vt -0.000000 0.471239
vt -0.100000 0.628319
vt -0.000000 0.628319
vt -0.100000 0.785398
vt -0.000000 0.785398
vt -0.100000 0.942478
vt -0.000000 0.942478
vt -0.100000 1.099557
vt -0.000000 1.099557
vt -0.100000 1.256637
vt -0.000000 1.256637
vt -0.100000 1.413717
vt -0.000000 1.413717
vt -0.100000 1.570796
vt -0.000000 1.570796
vt -0.100000 1.727876
vt -0.000000 1.727876
vt -0.100000 1.884956
vt -0.000000 1.884956
vt -0.100000 2.042035
vt -0.000000 2.042035
vt -0.100000 2.199115
vt -0.000000 2.199115
vt -0.100000 2.356194
vt -0.000000 2.356194
vt 0.000000 0.000000
vt 1.265687 0.000000
vt 0.000000 0.100000
vt 1.265687 0.100000
vt 1.060660 1.500000
vt 0.903652 1.495889
vt 1.060660 0.234313
vt 0.747075 1.483566
vt 0.930321 0.213503
vt 0.591357 1.463065
vt 0.801638 0.184140
vt 0.436925 1.434443
vt 0.284203 1.397777
vt 0.675173 0.146353
vt 0.133609 1.353170
vt -0.014444 1.300741
vt 0.551475 0.100307
vt -0.159550 1.240636
vt 0.431083 0.046203
vt -0.301311 1.173020
vt -0.439340 1.098076
vt 0.314523 -0.015725
vt -0.573257 1.016012
vt 0.202301 -0.085206
vt -0.702696 0.927051
vt -0.827301 0.831438
vt 0.094906 -0.161938
vt -0.946732 0.729434
vt -0.007193 -0.245586
vt -1.060660 0.621320
vt -0.103553 -0.335786
vt -1.060660 1.500000
vt -1.060660 0.234313
vt -0.903652 1.495889
vt -0.747075 1.483566
vt -0.930321 0.213503
vt -0.591357 1.463065
vt -0.801638 0.184140
vt -0.436925 1.434443
vt -0.284203 1.397777
vt -0.675173 0.146353
vt -0.133609 1.353170
vt 0.014444 1.300741
vt -0.551475 0.100307
vt 0.159550 1.240636
vt -0.431083 0.046203
vt 0.301311 1.173020
vt 0.439340 1.098076
vt -0.314523 -0.015725
vt 0.573257 1.016012
vt -0.202301 -0.085206
vt 0.702696 0.927051
vt 0.827301 0.831438
vt -0.094906 -0.161938
vt 0.946732 0.729434
vt 0.007193 -0.245586
vt 1.060660 0.621320
vt 0.103553 -0.335786
vn 0.7071 -0.7071 0.0000
vn 0.6589 -0.7522 -0.0000
vn 0.6590 -0.7522 0.0000
vn 0.6079 -0.7940 -0.0000
vn 0.5542 -0.8324 -0.0000
vn 0.4981 -0.8671 -0.0000
vn 0.4398 -0.8981 -0.0000
vn 0.3796 -0.9252 -0.0000
vn 0.3796 -0.9251 0.0000
vn 0.3178 -0.9482 -0.0000
vn 0.3177 -0.9482 0.0000
vn 0.2545 -0.9671 -0.0000
vn 0.1902 -0.9818 -0.0000
vn 0.1250 -0.9922 0.0000
vn -0.7071 -0.7071 0.0000
vn 0.0000 1.0000 -0.0000
vn -0.0524 0.9986 -0.0000
vn -0.0523 0.9986 -0.0000
vn -0.1045 0.9945 0.0000
vn -0.1046 0.9945 -0.0000
vn -0.1564 0.9877 -0.0000
vn -0.2079 0.9781 -0.0000
vn -0.2588 0.9659 -0.0000
vn -0.3090 0.9511 0.0000
vn -0.3584 0.9336 0.0000
vn -0.4067 0.9136 -0.0000
vn -0.4067 0.9135 -0.0000
vn -0.4540 0.8910 0.0000
vn -0.5000 0.8660 0.0000
vn -0.5446 0.8387 -0.0000
vn -0.5447 0.8387 -0.0000
vn -0.5878 0.8090 -0.0000
vn -0.6293 0.7771 -0.0000
vn -0.6293 0.7772 -0.0000
vn -0.6691 0.7432 -0.0000
vn -0.6691 0.7431 -0.0000
vn -0.7071 0.7071 -0.0000
vn 1.0000 0.0000 0.0000
vn -0.0000 -0.0000 1.0000
vn 0.0000 0.0000 -1.0000
usemtl Steel_-_Satin.007
s off
f 22/1/1 1/2/1 21/3/2
f 21/3/3 1/2/1 2/4/3
f 21/3/2 2/4/2 20/5/4
f 20/5/4 2/4/2 3/6/4
f 20/5/4 3/6/4 19/7/5
f 19/7/5 3/6/4 4/8/5
f 19/7/5 4/8/5 18/9/6
f 18/9/6 4/8/5 5/10/6
f 18/9/6 5/10/6 17/11/7
f 17/11/7 5/10/6 6/12/7
f 17/11/7 6/12/7 16/13/8
f 16/13/8 6/12/7 7/14/8
f 16/13/9 7/14/9 15/15/10
f 15/15/11 7/14/8 8/16/11
f 15/15/11 8/16/11 14/17/12
f 14/17/12 8/16/11 9/18/12
f 14/17/12 9/18/12 13/19/13
f 13/19/13 9/18/12 10/20/13
f 13/19/13 10/20/13 12/21/14
f 12/21/14 10/20/13 11/22/14
f 23/23/15 1/24/15 24/25/15
f 24/25/15 1/24/15 22/26/15
f 54/27/16 25/28/16 53/29/17
f 53/29/17 25/28/16 26/30/17
f 53/29/18 26/30/18 52/31/19
f 52/31/20 26/30/18 27/32/20
f 52/31/19 27/32/19 51/33/21
f 51/33/21 27/32/19 28/34/21
f 51/33/21 28/34/21 50/35/22
f 50/35/22 28/34/21 29/36/22
f 50/35/22 29/36/22 49/37/23
f 49/37/23 29/36/22 30/38/23
f 49/37/23 30/38/23 48/39/24
f 48/39/24 30/38/23 31/40/24
f 48/39/24 31/40/24 47/41/25
f 47/41/25 31/40/24 32/42/25
f 47/41/25 32/42/25 46/43/26
f 46/43/26 32/42/25 33/44/26
f 46/43/27 33/44/27 45/45/28
f 45/45/28 33/44/27 34/46/28
f 45/45/28 34/46/28 44/47/29
f 44/47/29 34/46/28 35/48/29
f 44/47/29 35/48/29 43/49/30
f 43/49/30 35/48/29 36/50/30
f 43/49/31 36/50/31 42/51/32
f 42/51/32 36/50/30 37/52/32
f 42/51/32 37/52/32 41/53/33
f 41/53/33 37/52/32 38/54/33
f 41/53/34 38/54/34 40/55/35
f 40/55/36 38/54/33 39/56/36
f 40/55/36 39/56/36 24/57/37
f 24/57/37 39/56/35 23/58/37
f 11/59/38 25/60/38 12/61/38
f 12/61/38 25/60/38 54/62/38
f 54/63/39 53/64/39 12/65/39
f 12/65/39 53/64/39 52/66/39
f 12/65/39 52/66/39 13/67/39
f 13/67/39 52/66/39 51/68/39
f 13/67/39 51/68/39 14/69/39
f 14/69/39 51/68/39 50/70/39
f 14/69/39 50/70/39 49/71/39
f 14/69/39 49/71/39 15/72/39
f 15/72/39 49/71/39 48/73/39
f 15/72/39 48/73/39 47/74/39
f 15/72/39 47/74/39 16/75/39
f 16/75/39 47/74/39 46/76/39
f 16/75/39 46/76/39 17/77/39
f 17/77/39 46/76/39 45/78/39
f 17/77/39 45/78/39 44/79/39
f 17/77/39 44/79/39 18/80/39
f 18/80/39 44/79/39 43/81/39
f 18/80/39 43/81/39 19/82/39
f 19/82/39 43/81/39 42/83/39
f 19/82/39 42/83/39 41/84/39
f 19/82/39 41/84/39 20/85/39
f 20/85/39 41/84/39 40/86/39
f 20/85/39 40/86/39 21/87/39
f 21/87/39 40/86/39 24/88/39
f 21/87/39 24/88/39 22/89/39
f 25/90/40 11/91/40 26/92/40
f 26/92/40 11/91/40 27/93/40
f 27/93/40 11/91/40 10/94/40
f 27/93/40 10/94/40 28/95/40
f 28/95/40 10/94/40 9/96/40
f 28/95/40 9/96/40 29/97/40
f 29/97/40 9/96/40 30/98/40
f 30/98/40 9/96/40 8/99/40
f 30/98/40 8/99/40 31/100/40
f 31/100/40 8/99/40 32/101/40
f 32/101/40 8/99/40 7/102/40
f 32/101/40 7/102/40 33/103/40
f 33/103/40 7/102/40 6/104/40
f 33/103/40 6/104/40 34/105/40
f 34/105/40 6/104/40 35/106/40
f 35/106/40 6/104/40 5/107/40
f 35/106/40 5/107/40 36/108/40
f 36/108/40 5/107/40 4/109/40
f 36/108/40 4/109/40 37/110/40
f 37/110/40 4/109/40 38/111/40
f 38/111/40 4/109/40 3/112/40
f 38/111/40 3/112/40 39/113/40
f 39/113/40 3/112/40 2/114/40
f 39/113/40 2/114/40 23/115/40
f 23/115/40 2/114/40 1/116/40
